<svg xmlns="http://www.w3.org/2000/svg" version="1.1" xmlns:xlink="http://www.w3.org/1999/xlink" xmlns:svgjs="http://svgjs.dev/svgjs" viewBox="0 0 7.039730716748572 5.115411303272553"><g transform="matrix(1,0,0,1,3.519507896759372,4.804109553096117)"><g transform="matrix(1,0,0,1,0,0)"><path d=" M -2.297157779576357 -0.5982174859799254 L -2.3077322843339987 -0.6754973659560914 L -2.73673469497092 -0.6167953074937995 L -2.7261601902132786 -0.5395154275176336 L -2.8965722332376447 -0.5161972888212959 L -2.9642219495717868 -1.0105903671303578 Q -2.9806259890035127 -1.130473257862615 -2.939805894802916 -1.1935899744237162 Q -2.898985800602319 -1.2567066909848175 -2.7870290514060785 -1.272026165826016 Q -2.711730706813917 -1.2823295294360257 -2.665347482054653 -1.2457802960523878 Q -2.6189642572953895 -1.2092310626687501 -2.594519004849718 -1.1338491707260068 Q -2.593110500404809 -1.204694185478131 -2.556196328975014 -1.2410341627435575 Q -2.519282157545219 -1.277374140008984 -2.457854560641087 -1.2857795155855707 L -2.395436196044953 -1.2943204617359734 L -2.410213388590888 -1.4023141401642054 L -2.2368290424905157 -1.4260389905819908 L -2.2155444624014167 -1.270488462937657 Q -2.205241098791407 -1.195190118345495 -2.210674946775503 -1.1611390787712659 Q -2.216108794759599 -1.1270880391970364 -2.2583208558579164 -1.1036489287652826 Q -2.3005329169562336 -1.0802098183335294 -2.404563524616457 -1.065974908082858 Q -2.4640095861365845 -1.0578406736539032 -2.490098223015236 -1.0345891570192 Q -2.5161868598938875 -1.011337640384497 -2.5091371900554598 -0.9598177204003864 L -2.5011385262003207 -0.9013624265722608 L -2.341624927787978 -0.9231892889566233 L -2.3521994325456195 -1.0004691689327894 L -2.1817873895212534 -1.023787307629127 L -2.1267457365519915 -0.6215356246762631 L -2.297157779576357 -0.5982174859799254 M -2.620196968458223 -0.9526955282428367 Q -2.6273822088704666 -1.0052062159189494 -2.6497316299377207 -1.0283903350085022 Q -2.6720810510049753 -1.0515744540980552 -2.7196379002210773 -1.0450670665548911 Q -2.7543147694411516 -1.0403220964713342 -2.7705375030750723 -1.0113553411569594 Q -2.7867602367089934 -0.9823885858425847 -2.781066272608725 -0.9407763427784952 L -2.7706273384248994 -0.8644872304943314 L -2.6111137400125566 -0.8863140928786941 L -2.620196968458223 -0.9526955282428367 M -2.2625511400546006 -1.6194129980219534 Q -2.3696328627625562 -1.5677723680694007 -2.5401746923185176 -1.6112635668538153 L -2.7930804736486645 -1.6757590377784304 L -2.812602091284851 -1.599209012011834 L -2.9792679701690856 -1.6417117744602394 L -2.8744937185520865 -2.052562545663237 L -2.7078278396678517 -2.0100597832148317 L -2.725619693716021 -1.9402926711237565 L -2.408760726302389 -1.859488000654986 Q -2.362249318241672 -1.847626764622873 -2.326888130895703 -1.8628611477571937 Q -2.2915269435497336 -1.8780955308915144 -2.279171489349616 -1.9265449142880942 Q -2.268792907821517 -1.9672423963412213 -2.286963426961749 -1.9971603213056044 Q -2.3051339461019813 -2.0270782462699874 -2.34680041582304 -2.037703936882089 L -2.6791631859235783 -2.122462352694897 L -2.6989319126437668 -2.044943339260369 L -2.8655977915280015 -2.0874461017087746 L -2.78676999373125 -2.396553167778954 L -2.620104114847015 -2.3540504053305487 L -2.638637296147192 -2.2813763302356787 L -2.313057439722175 -2.1983476780108875 Q -2.1773991662117513 -2.1637524062505573 -2.1283794928428352 -2.066627117973998 Q -2.079359819473919 -1.9695018296974385 -2.112472436730235 -1.8396574821946043 Q -2.155469417346645 -1.6710536279745063 -2.2625511400546006 -1.6194129980219534 M -2.005277062625952 -2.276034030687771 L -2.1452941311900986 -2.3810112687477574 L -2.0979044065801618 -2.4442189739852864 L -2.442746444015289 -2.7027629145787384 L -2.488936428761683 -2.641155404410514 L -2.6265532047218727 -2.7443330326751862 L -2.411199899215958 -3.03156804761535 L -1.8957864447861725 -2.948851840057487 L -2.1270146323006776 -3.1222142503394075 L -2.173804486978843 -3.0598066426365307 L -2.311421262939033 -3.1629842709012026 L -2.124861714158143 -3.411814604178058 L -1.987244938197953 -3.3086369759133856 L -2.033434922944347 -3.247029465745161 L -1.5493759144797254 -2.884108157023494 L -1.7269374142840452 -2.647279286766423 L -2.2087492108890494 -2.7198009569916586 L -2.0055244370873737 -2.5674339943217355 L -1.9587345824092086 -2.6298416020246123 L -1.8187175138450618 -2.524864363964626 L -2.005277062625952 -2.276034030687771 M -1.311606371059159 -3.111367481965433 Q -1.414249942998679 -3.112107170749055 -1.4998610112038628 -3.1683121082614067 Q -1.5854720794090467 -3.224517045773758 -1.6440151458862111 -3.3258171413682356 Q -1.7045596847215694 -3.4305804880941486 -1.710265792858971 -3.5323863834535247 Q -1.7159719009963725 -3.6341922788129013 -1.6645485965374462 -3.7210824034446714 Q -1.6131252920785197 -3.8079725280764416 -1.5066303197868895 -3.8695178030908965 Q -1.4001353474952591 -3.9310630781053515 -1.2991756021710397 -3.932237737234102 Q -1.1982158568468204 -3.933412396362853 -1.1128549726864105 -3.8776403652419305 Q -1.027494088526001 -3.8218683341210085 -0.9669495496906428 -3.7171049873950954 Q -0.9084064832134784 -3.615804891800618 -0.9024501910313025 -3.513566090049812 Q -0.8964938988491266 -3.4113272882990064 -0.9470991894756114 -3.322022447665315 Q -0.9977044801020962 -3.2327176070316237 -1.1033336396108677 -3.1716727001067175 Q -1.2089627991196392 -3.110627793181811 -1.311606371059159 -3.111367481965433 M -1.1517900414222804 -3.4174001448976705 Q -1.159570841233333 -3.486822469507988 -1.2131102268150133 -3.579464437273878 Q -1.2651485081280485 -3.6695089666911915 -1.3187977226829146 -3.7083807016363406 Q -1.3724469372377808 -3.7472524365814897 -1.4200666402950137 -3.719732191656327 Q -1.467686343352247 -3.692211946731164 -1.460791019071755 -3.6263203349504005 Q -1.4538956947912631 -3.560428723169637 -1.401857413478228 -3.4703841937523237 Q -1.3483180278965476 -3.377742225986434 -1.2920517122454034 -3.3363405143908276 Q -1.235785396594259 -3.2949388027952207 -1.1898973191027433 -3.321458311541287 Q -1.144009241611228 -3.347977820287353 -1.1517900414222804 -3.4174001448976705 M -0.5488605428312014 -3.507437484346861 Q -0.6371784156042595 -3.5870189102504093 -0.6614484689867388 -3.761337482149136 L -0.6974398549687109 -4.019844000703499 L -0.7756851230368894 -4.008950056287499 L -0.7994035842970396 -4.179306842461255 L -0.3794542974501067 -4.237775607428136 L -0.3557358361899566 -4.067418821254381 L -0.4270479792394357 -4.057490163052457 L -0.38195532323903386 -3.733614180036073 Q -0.375336217771085 -3.68607275133642 -0.34785483670412076 -3.659104738902199 Q -0.32037345563715663 -3.6321367264679782 -0.2708511340750183 -3.6390316279970913 Q -0.22925238396282216 -3.6448233452815466 -0.20843389716193106 -3.6729630078118816 Q -0.18761541036104 -3.701102670342216 -0.19354502567607756 -3.743691866885655 L -0.24084405016579574 -4.083414992801924 L -0.320079764665217 -4.072383150355343 L -0.34379822592536713 -4.242739936529098 L -0.027845814358924748 -4.286729408284842 L -0.004127353098774544 -4.116372622111086 L -0.07841083544198202 -4.106030269817416 L -0.032077097166339774 -3.7732402689198468 Q -0.012771372884822219 -3.634577768545859 -0.0841282710600968 -3.5524532102042556 Q -0.15548516923537148 -3.4703286518626517 -0.2882049910219021 -3.4518503157646276 Q -0.4605426700581434 -3.427856058443313 -0.5488605428312014 -3.507437484346861 M 0.2883869204106204 -3.477142671859947 L 0.3287536732120083 -3.6484509473993136 L 0.4066210711844478 -3.6301024233986827 L 0.505015031137831 -4.047666345025889 L 0.4378544003866019 -4.063491946976434 L 0.3866804307177798 -3.937880542922763 L 0.25333251168997717 -3.9693023902738434 L 0.3235156159923903 -4.267145187518425 L 1.035028964965556 -4.09948554946266 L 0.9648458606631429 -3.8016427522180787 L 0.8314979416353403 -3.833064599569159 L 0.8417915273686317 -3.968308978723161 L 0.7726842116680915 -3.9845932937737207 L 0.6742902517147085 -3.5670293721465143 L 0.752157649687148 -3.5486808481458834 L 0.7117908968857601 -3.3773725726065162 L 0.2883869204106204 -3.477142671859947 M 0.9492138485040748 -3.290067556299416 L 1.044051212281408 -3.4371419403088885 L 1.1096043662970585 -3.3948715724538485 L 1.3426333172927918 -3.756254344591409 L 1.2770801632771414 -3.798524712446449 L 1.3702917436754347 -3.9430778213014737 L 1.7115043145774105 -3.72305513733806 L 1.6182927341791173 -3.578502028483036 L 1.5527395801634667 -3.620772396338076 L 1.3197106291677334 -3.259389624200515 L 1.4247637606030708 -3.1916486500738483 L 1.5569333906280378 -3.3098907276057634 L 1.6611460970118923 -3.24269168127211 L 1.4736390806292792 -2.9519046134590963 L 0.9492138485040748 -3.290067556299416 M 1.6585743699254176 -2.8027306967569747 Q 1.647347394631715 -2.9047611090160386 1.693192648861546 -2.9963387409170776 Q 1.739037903091377 -3.0879163728181167 1.8328254447736256 -3.1578656188841068 Q 1.9298193981373188 -3.230206292166028 2.030266676873389 -3.2477375269918545 Q 2.1307139556094588 -3.2652687618176803 2.223004698917822 -3.2243216166230533 Q 2.3152954422261844 -3.1833744714284262 2.3888318291160715 -3.0847773122240105 Q 2.4623682160059586 -2.9861801530195953 2.4753002701985727 -2.8860451842306687 Q 2.4882323243911864 -2.785910215441742 2.442787871621536 -2.6946315119426947 Q 2.397343418851886 -2.6033528084436472 2.3003494654881926 -2.531012135161726 Q 2.2065619238059435 -2.4610628890957353 2.105713843609693 -2.443232725867918 Q 2.0048657634134424 -2.4254025626401003 1.9102720844021857 -2.465255867284951 Q 1.8156784053909285 -2.505109171929802 1.7427398753050243 -2.602904728213856 Q 1.66980134521912 -2.7007002844979104 1.6585743699254176 -2.8027306967569747 M 1.981146168553214 -2.679666954208536 Q 2.049188745967843 -2.6954849078933254 2.134960258446481 -2.7594555859194876 Q 2.218326962164036 -2.821632693533701 2.250681805138346 -2.879446309024411 Q 2.2830366481126565 -2.937259924515122 2.250154523893601 -2.9813480851349823 Q 2.2172723996745463 -3.025436245754843 2.152633289285163 -3.010909187963632 Q 2.0879941788957805 -2.996382130172421 2.004627475178226 -2.9342050225582073 Q 1.918855962699588 -2.8702343445320455 1.8842933663079966 -2.809526627307034 Q 1.8497307699164052 -2.7488189100820226 1.8814171805274946 -2.7063339553028842 Q 1.9131035911385843 -2.663849000523746 1.981146168553214 -2.679666954208536 M 2.1408327561023093 -2.0913380525529193 Q 2.2095797845996215 -2.1883282379986113 2.379882316943828 -2.2327472370547654 L 2.632433231386088 -2.29861859360963 L 2.61249515794611 -2.375061207559586 L 2.778927178191584 -2.4184706839099186 L 2.8859365850086824 -2.008196401444331 L 2.7195045647632083 -1.9647869250939987 L 2.7013331560584177 -2.034456142871174 L 2.3849187919870802 -1.9519276616702514 Q 2.3384726468022965 -1.9398133892003913 2.314890937946168 -1.9093765199884505 Q 2.291309229090039 -1.87893965077651 2.30392826291281 -1.8305582495423605 Q 2.314528251323938 -1.789917872505675 2.34490227851417 -1.7725205028123272 Q 2.375276305704403 -1.7551231331189796 2.4168843107657714 -1.7659755022065626 L 2.748780723232037 -1.8525420742307719 L 2.728590269115603 -1.9299523162054109 L 2.8950222893610773 -1.9733617925557434 L 2.975531725150357 -1.6646884526818697 L 2.8090997049048823 -1.6212789763315372 L 2.790171154170726 -1.6938510781827616 L 2.4650481378772415 -1.6090511708937403 Q 2.3295802144216227 -1.5737178761899815 2.2396995951874445 -1.635018155847424 Q 2.1498189759532664 -1.6963184355048666 2.11599996530824 -1.8259805908123872 Q 2.0720857276049967 -1.9943478671072274 2.1408327561023093 -2.0913380525529193 M 2.40279951006467 -1.3785479412340054 L 2.3924354045069975 -1.3012395631887417 L 2.8215960159633977 -1.243705490028842 L 2.83196012152107 -1.3210138680741057 L 3.0024350064413956 -1.2981596865879563 L 2.954600673098292 -0.9413517879175081 Q 2.9264315656851307 -0.7312315809226886 2.8143522974329 -0.6327506811093517 Q 2.7022730291806694 -0.5342697812960149 2.5119754832230967 -0.55978142574567 Q 2.3266336025248364 -0.5846287044544489 2.241410956882371 -0.7090557942287368 Q 2.1561883112399047 -0.8334828840030247 2.1846231649494166 -1.045585357101569 L 2.232324625144345 -1.4014021227201547 L 2.40279951006467 -1.3785479412340054 M 2.3550980498697416 -1.0227311756154194 Q 2.3442024517193683 -0.9414582653627063 2.40017439135233 -0.8961190773050877 Q 2.456146330985291 -0.8507798892474692 2.5493128378603527 -0.8382898133189921 Q 2.644461610839139 -0.8255339910941646 2.7088459004333663 -0.8542335251225545 Q 2.773230190027593 -0.8829330591509443 2.7842586613261417 -0.9651971024555199 L 2.788377728919576 -0.9959222270632528 L 2.3592171174631758 -1.0534563002231525 L 2.3550980498697416 -1.0227311756154194" fill="#1c3423" fill-rule="nonzero"></path></g><g transform="matrix(1,0,0,1,0,0)"><g clip-path="url(#SvgjsClipPath1002)"><g clip-path="url(#bc32f4cc0-38f1-458f-a35a-41bdcbfe72f815135564-b61d-492b-ae41-17264b6e61eb)"><path d=" M -0.9661169129832957 -1.5685337987176653 L -0.9497032716427296 -1.665874655038619 L -0.813461728784721 -1.6429121966244453 L -0.8295009822163604 -1.5478236104222733 L -0.7636503089018007 -1.5367227117893343 L -0.7163110377508413 -1.8174423315017396 L -0.6277593832918347 -1.8025084138012173 L -0.6399715603211118 -1.730067324756503 L -0.5786670259006625 -1.7197270872718595 L -0.5668292367803123 -1.7898980782021292 L -0.5373179612925312 -1.7849240674121027 L -0.5480088160252172 -1.7215396001642826 L -0.5003189276262152 -1.7135051167854103 L -0.47055211753392845 -1.8900795284987493 L -0.379718479630035 -1.8747712228893 L -0.4366016711260159 -1.5374477169463034 L -0.37302109592590105 -1.5267271488875123 L -0.35622712401118717 -1.6263499886533526 L -0.2812960582388486 -1.613703997062938 L -0.3007701721682605 -1.4982498971481955 L -0.23037930262481154 -1.4863764520365188 L -0.1956444244077189 -1.6923967699202072 L -0.12070741597015955 -1.6797507783297927 L -0.1447633247850082 -1.5371268130243663 L -0.09252729749189581 -1.5283257258319773 L -0.07573332557718193 -1.6279366802673754 L -0.0076125541481777415 -1.6164495083950676 L -0.02211859995278398 -1.5304234866550113 L 0.12093323724855876 -1.5062962658575099 L 0.15299391611617463 -1.6964615529314118 L 0.3777930560984111 -1.6585532914862737 L 0.35335681670941477 -1.5136711133968448 L 0.4487247081769763 -1.4975962039738788 L 0.4685672673500936 -1.615308516672624 L 0.5321537852154299 -1.604593891279054 L 0.5226039222051868 -1.547995947713684 L 0.6134316174438597 -1.5326757567737928 L 0.6367209224451915 -1.6707654685155509 L 0.9341691447548792 -1.6206153167150301 L 0.8910372805804301 -1.3648014069440848 L 0.9841350739335473 -1.3490949427648247 L 1.0051245674943285 -1.4736175498069042 L 1.1572627398186712 -1.4479630640475905 L 1.0806736704496578 -1.005186963756894 L -0.9973872173765105 -1.371403708004682 Z" fill="#faecd3" transform="matrix(1,0,0,1,0,0)" fill-rule="nonzero"></path></g><g clip-path="url(#bc32f4cc0-38f1-458f-a35a-41bdcbfe72f815135564-b61d-492b-ae41-17264b6e61eb)"><path d=" M 1.8722545058904385 -0.8213446724781996 L 1.9022411945959041 -0.992053673618353 L 1.6579322846929296 -1.0339435207616008 L 1.6286468304835486 -0.8671982773238942 L 1.510554187210656 -0.8874508803972647 L 1.597043736837955 -1.3797293819793859 L 1.4382378941355831 -1.4069527313570593 L 1.4159231862305053 -1.2799163769264719 L 1.305983879640906 -1.2987665110076725 L 1.32760329571512 -1.4218331650705922 L 1.2746719765911438 -1.4309016721979289 L 1.255144378674742 -1.3197500619032332 L 1.1696353688089183 -1.334410617003587 L 1.2240404689077178 -1.644071016342552 L 1.0611639005289206 -1.6719956002163103 L 0.9572385711430329 -1.0804627041120543 L 0.8432344815422288 -1.1000081300241185 L 0.8739224047437799 -1.2746927741971608 L 0.7395468587651834 -1.297732487259208 L 0.7039800074171432 -1.0952658831777131 L 0.5777577981218405 -1.1168971845823694 L 0.6412254626827554 -1.4781636887010146 L 0.5068558593693806 -1.501197459097841 L 0.46291579272486705 -1.2510885079391125 L 0.3692593888409703 -1.267157474696857 L 0.39994731204252143 -1.4418361762046783 L 0.27778988575842356 -1.4627781284436918 L 0.2512915415377195 -1.3119176291418768 L -0.005241430724974183 -1.3558933517777167 L 0.05335324835467192 -1.689371953322688 L -0.34976150425067365 -1.7584910925088302 L -0.39439686272605123 -1.504412440982434 L -0.5654148824576997 -1.5337335511831416 L -0.5291408539483531 -1.7401639129670832 L -0.6431568288795995 -1.7597152815443684 L -0.6605866659729667 -1.660466829687455 L -0.8234691770169846 -1.6883854708959922 L -0.7809196940341987 -1.9305550213193854 L -1.3143273816112728 -2.022006696406269 L -1.393144950438184 -1.5734067841989345 L -1.5600803591629648 -1.6020266599035566 L -1.521720455161026 -1.8203780081209433 L -1.8951218816610742 -1.8764648824773023 L -1.8951218816610742 -1.0860904080763973 L 1.8081806894769754 -0.47681865628727893 Z" fill="#67a97b" transform="matrix(1,0,0,1,0,0)" fill-rule="nonzero"></path></g><g clip-path="url(#bc32f4cc0-38f1-458f-a35a-41bdcbfe72f815135564-b61d-492b-ae41-17264b6e61eb)"><path d=" M -0.32460620236992965 -1.053096730769075 C -0.3298060344383569 -1.0639539801279507 -0.3218904043639057 -1.096472244217588 -0.34497765874772157 -1.0997169394282864 C -0.3680530278010954 -1.1029616346389848 -0.3769551403022422 -1.2791319451172918 -0.3751010287532719 -1.2923306045732648 C -0.37324691720430114 -1.305547092024901 -0.354129363188153 -1.3936649319227703 -0.3560963853763235 -1.4275559516784722 C -0.3580693502297154 -1.4614826274255006 -0.4328875053628536 -1.6469294383138813 -0.4328875053628536 -1.6469294383138813 C -0.3764678417541154 -1.6894729786314457 -0.36981799937174986 -1.880286016214443 -0.36131998810563504 -1.869000894959651 C -0.35282197683952 -1.8577157737048595 -0.3353386557591631 -1.8384199397320793 -0.3094226927301229 -1.8314313654321133 C -0.28350078703586146 -1.8244368484669264 -0.22339667099006633 -1.9169047193066113 -0.18211297569936669 -1.9952112189245113 C -0.14083522307388785 -2.0735117758771904 -0.18613021738880264 -2.1101542496302432 -0.21622981673346886 -2.0874948671423432 C -0.24633535874335588 -2.064829541989223 -0.2119154417829796 -2.0465261331083595 -0.23676766773745017 -1.989464661655747 C -0.2616080083614789 -1.9324031902031342 -0.3016318586253137 -1.9346257469958104 -0.3016318586253137 -1.9346257469958104 C -0.29932016185432175 -1.9510988149885873 -0.31778402269615347 -1.9873609581674918 -0.31778402269615347 -1.9873609581674918 C -0.31778402269615347 -1.9873609581674918 -0.30705156930692024 -2.039703953434583 -0.32505784492673007 -2.0792167344894077 C -0.3430819485422034 -2.1187176302137893 -0.36608006294770346 -2.098459084475198 -0.37980761960835085 -2.120565799097539 C -0.41104226801023924 -2.1855131872984974 -0.3535588673269312 -2.187533693473658 -0.32724474572808027 -2.207352481985891 C -0.3009127961335658 -2.2272069264894507 -0.32745273901081706 -2.3015615537353464 -0.32745273901081706 -2.3015615537353464 C -0.32807077619380753 -2.368921664016055 -0.36580670034753493 -2.387700486114603 -0.4364649898259314 -2.3875340914884133 C -0.5071411072999914 -2.3873676968622237 -0.4641459244256263 -2.334264040446836 -0.5310543921495345 -2.3369441824615342 C -0.5979925731995481 -2.3395886684849057 -0.5582658561967657 -2.28694259729154 -0.5821910263767509 -2.2364596562386403 C -0.606092425895852 -2.1859588871900772 -0.5758323745902174 -2.138031292182233 -0.5758323745902174 -2.138031292182233 C -0.6298749721105317 -2.0884635215733764 -0.7169469029294946 -2.0434597178542933 -0.7423042554277552 -2.0066627348054933 C -0.7676556652607949 -1.9698419810958088 -0.6943469470938057 -1.845170807423203 -0.6919342250140554 -1.8145482535390838 C -0.6895155602690843 -1.7839316423201854 -0.6762455888304586 -1.7585267485001563 -0.6404885721953439 -1.7737043154747423 C -0.6047374982254505 -1.7888402837927806 -0.6217870047446699 -1.8349731939038647 -0.641605793256903 -1.8377543612273208 C -0.661365155116926 -1.8405355285507765 -0.6634034892877492 -1.8980308145645268 -0.6804411104765264 -1.9441221260190635 C -0.6974965596609672 -1.9902609787953691 -0.6161058167933371 -2.0192017584219286 -0.5864103186837031 -2.015030007436745 C -0.5567207632392901 -2.010858256451561 -0.5526262669019801 -1.872346615479108 -0.6014096057016571 -1.788376755905538 C -0.6502167151622182 -1.704400953666747 -0.6335237685562622 -1.6078326438245312 -0.6292272216014363 -1.5904622333833744 C -0.6249366173118314 -1.573044281620449 -0.7409790410834589 -1.4177564967289453 -0.7409790410834589 -1.4177564967289453 C -0.7409790410834589 -1.4177564967289453 -0.7890136040652824 -1.4110591130248111 -0.8115957319053082 -1.394039319831697 C -0.8341719170801132 -1.377043297299467 -0.9239299325789948 -1.288741234779745 -0.9385429463575798 -1.2806770380747672 C -0.9531084188143965 -1.2726544400263369 -1.0351231415302378 -1.2875111030789856 -1.0351231415302378 -1.2875111030789856 L -1.0453207550495758 -1.214957103395071 L -1.0330788646941933 -1.2065066334507244 C -1.0550667260121132 -1.1457131682392865 -1.035063714878027 -1.048675387844607 -1.0053741594336143 -1.0444976941942021 C -0.9756905466544223 -1.0403259432090184 -0.9791848338044051 -1.1350460841674848 -0.9641320627994617 -1.146366861413603 C -0.9490792917945181 -1.157687638659721 -0.9232227554176886 -1.1742439039655928 -0.9195085896545263 -1.2006471655427597 C -0.9158003665565854 -1.227044484454706 -0.6988574299965897 -1.334458158325355 -0.6602538767205874 -1.3458621328845681 C -0.6216562661098066 -1.3572601647785603 -0.5276908436344148 -1.4752517827426952 -0.5276908436344148 -1.4752517827426952 C -0.5209578039389544 -1.427240990421756 -0.4535085536799297 -1.3806920937451976 -0.4535085536799297 -1.3806920937451976 C -0.46846624204133636 -1.3222638092917411 -0.44411319996543486 -1.1842870081891832 -0.4355973607036565 -1.1730078295996123 C -0.42709340677232066 -1.1617048803491572 -0.4123496543588723 -1.099087016914854 -0.4367858937478686 -1.0688626216005457 C -0.5222711329528087 -0.9632376899614354 -0.3540937071968264 -0.9630712953352458 -0.2716213992589638 -0.9514830981541798 C -0.18917286198198524 -0.9398949009731139 -0.3194004276362816 -1.0423226787232944 -0.32460620236992965 -1.053096730769075 M -0.525902101402876 -2.1461489728742 C -0.5185985658461938 -2.150172157228857 -0.5109503557066903 -2.1928048375247378 -0.5286713833958898 -2.210424839905179 C -0.5463567550937627 -2.228056727616062 -0.5281246581955521 -2.2860511975083813 -0.5241311871670002 -2.290526024419839 C -0.5201198881427851 -2.295012736661739 -0.4989342866297082 -2.3021498775922313 -0.5026722230537546 -2.287513093152762 C -0.5064279874734641 -2.272911964704619 -0.5118476981550704 -2.282057726479829 -0.4744980472407119 -2.224699121766164 C -0.4371305683306901 -2.167334574387277 -0.525902101402876 -2.1461489728742005 -0.525902101402876 -2.1461489728742005" fill="#1c3423" transform="matrix(1,0,0,1,0,0)" fill-rule="nonzero"></path></g><g clip-path="url(#bc32f4cc0-38f1-458f-a35a-41bdcbfe72f815135564-b61d-492b-ae41-17264b6e61eb)"><path d=" M 0.8270110054887361 -0.7745996678493459 C 0.8098129323389898 -0.7731674855310706 0.7725999627247158 -0.7774343191597912 0.7568518998889082 -0.8003314082565331 C 0.74682068099576 -0.8146770021001708 0.742512248710492 -0.8075160905087939 0.742512248710492 -0.8075160905087939 C 0.742512248710492 -0.8075160905087939 0.7196092169485289 -0.9464199473858372 0.7267879565355686 -0.9564392809485436 C 0.7339310401312822 -0.9664526718460287 0.742512248710492 -0.9850710419836077 0.7310547901642892 -1.0008191048194153 C 0.7196092169485289 -1.0165790529856649 0.6823903046690336 -1.0924550025281519 0.6723531431106642 -1.1010778097639091 C 0.6623397522131789 -1.1096471330126767 0.7167270243163151 -1.2485391045592777 0.729640435841677 -1.2442306722740097 C 0.742512248710492 -1.2399697813105102 0.7654331084681181 -1.2328029270539125 0.7740440303734333 -1.2328029270539125 C 0.7826133536222011 -1.2328029270539125 0.7883599108909654 -1.212740489267616 0.7983733017884507 -1.2184929892016012 C 0.808386692685936 -1.2241979478138183 0.8198500938973592 -1.2514272398567128 0.792626744519686 -1.2600381617620278 C 0.7654331084681181 -1.2686015423455745 0.7482409779835935 -1.2886283241405447 0.751117227950586 -1.2958130063928055 C 0.7539756499219157 -1.3029858033146242 0.7668652907863935 -1.3745770912327273 0.7410860090574374 -1.3802820498449442 C 0.7410860090574374 -1.3802820498449442 0.7525494102688615 -1.4103697638591681 0.7525494102688615 -1.4203890974218745 C 0.7525494102688615 -1.4303965456541385 0.755425660235854 -1.4862635413973182 0.7310547901642892 -1.4891041353729848 C 0.706719576084051 -1.4919685000095355 0.6623397522131789 -1.4905600883521444 0.6594694449114076 -1.4676392285945181 C 0.6566050802748571 -1.4447124261716708 0.6651803461888457 -1.423235634062762 0.6651803461888457 -1.423235634062762 C 0.6651803461888457 -1.423235634062762 0.6752293930776572 -1.3903132687380926 0.6394188924555528 -1.394621701023361 C 0.6036083918334485 -1.3989063626477447 0.569259786855725 -1.391751393721589 0.5334671142292844 -1.3659661693274123 C 0.49765661360718005 -1.3401868875984564 0.46901890990689465 -1.3129873088816673 0.4962244312889046 -1.2900783344544833 C 0.5234537233317991 -1.267157474696857 0.5664013648843953 -1.2199014008589926 0.569259786855725 -1.2141904995815544 C 0.5721122661618339 -1.2084617703084533 0.5792731777532103 -1.1998508484031378 0.5721122661618339 -1.1912874678195913 C 0.564951354570457 -1.1826943739099394 0.5263062026379075 -1.1325501647746399 0.5549379636729717 -1.0996337421151916 C 0.5549379636729717 -1.0996337421151916 0.5019591032272268 -1.0194553029526576 0.500532863574173 -1.007997844406455 C 0.500532863574173 -1.007997844406455 0.4332084092847903 -1.007997844406455 0.3458690585308799 -0.9464199473858372 C 0.3458690585308799 -0.9464199473858372 0.314366990194044 -0.9650442601886375 0.3000451670112907 -0.9535630309815506 C 0.2857292864937586 -0.9421234004310113 0.2971689170442977 -0.9034723058332406 0.29861892735823603 -0.8991698162131938 C 0.3000451670112907 -0.8948673265931468 0.2800183852163205 -0.8519137423753291 0.29861892735823603 -0.8347216118908041 C 0.31724324016103655 -0.8175532520671633 0.3186694798140908 -0.8332953722377499 0.32009571946714543 -0.8390003308499667 C 0.3215219591201992 -0.8447350027882892 0.32009571946714543 -0.8762489564555676 0.3272744590541852 -0.8805514460756145 C 0.3344115999846775 -0.8848479930304405 0.358764642060579 -0.9005782278705847 0.358764642060579 -0.9005782278705847 L 0.3573205744118615 -0.9177881863507729 C 0.3573205744118615 -0.9177881863507729 0.5091140721533824 -0.9564392809485436 0.5348933538823382 -0.9564392809485436 C 0.560654807615631 -0.9564392809485436 0.6093608917674345 -1.0237221365813785 0.6093608917674345 -1.0237221365813785 C 0.6093608917674345 -1.0237221365813785 0.6823903046690336 -0.989379474268876 0.6723531431106642 -0.9693289218130214 C 0.6623397522131793 -0.9492843120223879 0.6752293930776572 -0.8690880448641909 0.7052933364309968 -0.8132448197818953 C 0.7138804876754274 -0.797502699611309 0.7024170864640042 -0.7430916568472887 0.7167270243163151 -0.7416357038681289 C 0.7310547901642892 -0.740215406880296 0.791218332862295 -0.730219843978474 0.837024396386221 -0.7616624856630994 C 0.837024396386221 -0.7616624856630994 0.8441793653123766 -0.7760021368415158 0.8270110054887361 -0.7745996678493459 M 0.5792731777532103 -1.2542856618280425 C 0.5620988752643485 -1.2585822087828684 0.5363195935353928 -1.2886283241405447 0.5363195935353928 -1.3043942149720156 C 0.5363195935353928 -1.320154163138265 0.5821494277202028 -1.3301913246966344 0.5821494277202028 -1.3301913246966344 C 0.5735622764757722 -1.3129873088816675 0.5792731777532103 -1.2542856618280425 0.5792731777532103 -1.2542856618280425" fill="#1c3423" transform="matrix(1,0,0,1,0,0)" fill-rule="nonzero"></path></g><g clip-path="url(#bc32f4cc0-38f1-458f-a35a-41bdcbfe72f815135564-b61d-492b-ae41-17264b6e61eb)"><path d=" M 1.8138737627587493 -0.46611591622415083 C 1.8138737627587493 -0.46611591622415083 -0.2184404881957034 -1.1240343255128618 -1.9022411945959041 -1.0976191786052527 C -1.9022411945959041 -1.0976191786052527 -1.5880940830150394 -0.9982815867700232 -0.7372886459811814 -0.40766386110981 C -0.7372886459811814 -0.40766386110981 0.07648804406025578 -0.6292064205509058 1.8138737627587493 -0.46611591622415083" fill="#1c3423" transform="matrix(1,0,0,1,0,0)" fill-rule="nonzero"></path></g><g clip-path="url(#bc32f4cc0-38f1-458f-a35a-41bdcbfe72f815135564-b61d-492b-ae41-17264b6e61eb)"><path d=" M -1.9022411945959041 -1.0976191786052527 L -1.8990321553765321 -1.0083900603110452 C -1.8990321553765321 -1.0083900603110452 -0.8914770378067893 -0.4361767688404532 -0.7405987105093113 -0.26291242165524453 L -0.7372886459811812 -0.4076698037750315 C -0.7372886459811812 -0.4076698037750315 -1.4887089498580413 -1.074169421642952 -1.9022411945959041 -1.0976191786052527" fill="#1c3423" transform="matrix(1,0,0,1,0,0)" fill-rule="nonzero"></path></g><g clip-path="url(#bc32f4cc0-38f1-458f-a35a-41bdcbfe72f815135564-b61d-492b-ae41-17264b6e61eb)"><path d=" M 1.7859313508893282 -0.43418003332617716 C 1.7859313508893282 -0.43418003332617716 -0.15606627403546325 -0.517252550451367 -0.7434927884719671 -0.1875 L -0.7484489712663307 -0.42772035623088556 C 0.35325579140065666 -1.0323924851389041 1.789283014074006 -0.4687960582388484 1.7859313508893282 -0.43418003332617716" fill="#1c3423" transform="matrix(1,0,0,1,0,0)" fill-rule="nonzero"></path></g><g clip-path="url(#bc32f4cc0-38f1-458f-a35a-41bdcbfe72f815135564-b61d-492b-ae41-17264b6e61eb)"><path d=" M -1.6209273083613926 -0.968265184738452 C -1.6209273083613926 -0.968265184738452 -0.21986672784875716 -1.013768172336104 1.7679666739260658 -0.4725042813367897 L 1.6170824039633664 -0.5084276925980937 C 1.6170824039633664 -0.5084276925980937 -0.27533556502212586 -1.008948670841825 -1.5059664496599978 -0.9083928326362782 Z" fill="#a4c868" transform="matrix(1,0,0,1,0,0)" fill-rule="nonzero"></path></g><g clip-path="url(#bc32f4cc0-38f1-458f-a35a-41bdcbfe72f815135564-b61d-492b-ae41-17264b6e61eb)"><path d=" M -0.7434927884719671 -0.1875 L -1.8918474731242712 -1.0059892235617371 L -1.8700022357716568 -1.0089783841679298 L -0.732391889839028 -0.3072506468695688 L -0.737181678007202 -0.23060809351356548" fill="#1c3423" transform="matrix(1,0,0,1,0,0)" fill-rule="nonzero"></path></g><g clip-path="url(#bc32f4cc0-38f1-458f-a35a-41bdcbfe72f815135564-b61d-492b-ae41-17264b6e61eb)"><path d=" M 1.8098802917301973 -0.4653195990845289 C 1.8098802917301973 -0.4653195990845289 -0.1808471880072815 -0.5510187742374271 -0.7405927678440907 -0.26291242165524453 L -0.7405927678440907 -0.45427218443857953 C -0.7405927678440907 -0.45427218443857953 -0.19718357469997394 -0.6740378869785784 1.8098802917301973 -0.4653195990845289" fill="#67a97b" transform="matrix(1,0,0,1,0,0)" fill-rule="nonzero"></path></g><g clip-path="url(#bc32f4cc0-38f1-458f-a35a-41bdcbfe72f815135564-b61d-492b-ae41-17264b6e61eb)"><path d=" M 1.8230492378600653 -0.47729406950496345 L 1.785925408224107 -0.4341859759913982 L 1.7080883791586705 -0.4413706582436594 L 1.785925408224107 -0.4820838576731372 Z" fill="#1c3423" transform="matrix(1,0,0,1,0,0)" fill-rule="nonzero"></path></g><g clip-path="url(#bc32f4cc0-38f1-458f-a35a-41bdcbfe72f815135564-b61d-492b-ae41-17264b6e61eb)"><path d=" M 1.7033045336557182 -0.44376555232774617 L 1.7104892159079792 -0.4689149115432698 L 1.7787466686370677 -0.4725042813367897 L 1.7775462502624142 -0.45095023458000694 Z" fill="#1c3423" transform="matrix(1,0,0,1,0,0)" fill-rule="nonzero"></path></g><g clip-path="url(#bc32f4cc0-38f1-458f-a35a-41bdcbfe72f815135564-b61d-492b-ae41-17264b6e61eb)"><path d=" M 0.9753993560585899 -0.6840631632065053 C 0.9753993560585899 -0.6840631632065053 0.9458761952403665 -0.6781561539767722 0.9321010972579507 -0.6919371946244091 C 0.918320056610314 -0.7057122926068249 0.9015855113478104 -0.706698775033521 0.9143800695687514 -0.7214603554426322 C 0.9271805704549136 -0.7362159931865231 0.956703731273137 -0.7687045439500548 0.961624258076174 -0.7874001687355077 C 0.966544784879211 -0.806095793520961 0.9901668791329226 -0.8198768341685978 0.9970484854589092 -0.8257838433983307 C 1.0039360344501171 -0.8316908526280637 1.0088684465835966 -0.8789290984702653 1.0118100658680211 -0.8868031298881691 C 1.0118100658680211 -0.8868031298881691 1.006895481730205 -0.9261673443124667 1.0285446111305243 -0.9507699783276529 C 1.0344516203602574 -0.9586380670803354 1.0324845981720865 -1.012775747244187 1.0344516203602574 -1.0157292518590535 C 1.0364067572179863 -1.0186768138086988 1.0167365353362794 -1.032463797121557 1.0236240843274869 -1.0432853904891062 C 1.0305116333186948 -1.0541069838566552 1.0383916074018196 -1.0609945328478632 1.0393721471632948 -1.0737950337340252 C 1.0403586295899905 -1.0865895919549662 1.04921914343459 -1.0993782075106862 1.0570812895220516 -1.1033181945522486 C 1.0649612636051768 -1.1072581815938107 1.0846433708173253 -1.1298878507556052 1.0570812895220516 -1.132835412705251 C 1.0295370362224412 -1.1358008026505593 1.031504058410612 -1.162364516188695 1.056106692425798 -1.162364516188695 C 1.0669282857933473 -1.162364516188695 1.0610212765636142 -1.180085543877894 1.0846433708173253 -1.18107202630459 C 1.1082714077362577 -1.182052566066065 1.137794568554481 -1.1771320392630278 1.1181065186771109 -1.1200467971495307 C 1.1121995094473778 -1.1062716991671149 1.088583357858888 -1.1072581815938107 1.1013779160798285 -1.0895430965698327 C 1.1141665316355487 -1.0718280115458545 1.1171259789156365 -1.0442718729158018 1.1151589567274656 -1.0363978414978983 C 1.1151589567274656 -1.0363978414978983 1.1309010768980523 -1.031483257360082 1.137794568554481 -1.0472253775306684 C 1.1446821175456885 -1.0629674977012549 1.151575609202118 -1.0472253775306684 1.151575609202118 -1.0472253775306684 C 1.151575609202118 -1.0472253775306684 1.1653388218540914 -1.0373783812593729 1.155509653578459 -1.0304908322681652 C 1.1456626573071638 -1.0236032832769573 1.1318816166595267 -1.0265567878918238 1.1289340547098814 -1.0226168008502614 C 1.1259805500950149 -1.0186768138086988 1.1141665316355487 -1.0117892648174909 1.1102384299244281 -1.0058822555877578 C 1.106298442882866 -0.999981189023246 1.1190870584385857 -0.9940682371282918 1.1181065186771109 -0.9881671705637798 C 1.1171259789156365 -0.9822720466644888 1.1121995094473778 -0.9763590947695346 1.1033449382679994 -0.9763590947695346 C 1.1033449382679994 -0.9763590947695346 1.1053119604561703 -0.9409348673867994 1.0994049512264372 -0.936008397918541 C 1.0994049512264372 -0.936008397918541 1.1574707331014082 -0.8759755938553986 1.1643642247578379 -0.8631810356344578 C 1.1712577164142666 -0.8503864774135166 1.1732187959372167 -0.82381682121016 1.1466491397338594 -0.8179038693152059 C 1.1200675982000605 -0.8120087454159148 1.0610212765636142 -0.7795320799828251 1.0590542543754438 -0.7696910263767507 C 1.0570812895220516 -0.7598440301054552 1.0580677719487477 -0.7244079173922777 1.0590542543754438 -0.7194933332544617 C 1.0590542543754438 -0.7194933332544617 1.0521726480494566 -0.7185127934929867 1.0472521212464192 -0.7224408952041073 C 1.0423256517781614 -0.7263808822456694 1.0157559955748041 -0.7618169949588467 1.0127965482947168 -0.7667375217618841 C 1.0098430436798502 -0.7716580485649214 1.0078760214916793 -0.7844466641206411 1.0187095001896707 -0.7844466641206411 C 1.0295370362224412 -0.7844466641206411 1.0423256517781614 -0.7854331465473372 1.0452732137278062 -0.7903477306851534 C 1.048220775677452 -0.7952742001534114 1.104331420694695 -0.8385784016192714 1.1249940676683188 -0.841531906234138 C 1.1348351212743932 -0.8434989284223089 1.1269551471912684 -0.8523534996016873 1.1210540806267566 -0.8523534996016873 C 1.1151589567274656 -0.8523534996016873 1.0728293523578591 -0.8779485587087903 1.0698758477429926 -0.8808961206584358 C 1.0698758477429926 -0.8808961206584358 1.0393721471632948 -0.8208633165952934 1.0275640713690495 -0.8120087454159148 C 1.0157559955748041 -0.8031422889060944 0.9537502266582705 -0.7313014090487069 0.9537502266582705 -0.7313014090487069 C 0.9537502266582705 -0.7313014090487069 0.9507967220434039 -0.7145728064514245 0.956703731273137 -0.7076852574602166 C 0.9626107405028701 -0.7007977084690087 0.9635853375991237 -0.6899701724362386 0.9793393431001525 -0.6929236770511051 C 0.9842598699031895 -0.6938982741473587 0.9832733874764934 -0.6840631632065053 0.9753993560585899 -0.6840631632065053" fill="#1c3423" transform="matrix(1,0,0,1,0,0)" fill-rule="nonzero"></path></g></g></g></g><defs><clipPath id="SvgjsClipPath1002"><path d=" M -1.9022411945959041 -2.3875351850664104 h 3.8044823891918083 v 2.2000351850664104 h -3.8044823891918083 Z"></path></clipPath><clipPath id="bc32f4cc0-38f1-458f-a35a-41bdcbfe72f815135564-b61d-492b-ae41-17264b6e61eb"><path d=" M -1.9081838598169636 -2.4576099997751464 L 1.908183859816963 -2.4576099997751464 L 1.908183859816963 -0.18155733477894076 L -1.9081838598169636 -0.18155733477894076 Z"></path></clipPath></defs></svg>